# Blender 3.6.2
# www.blender.org
mtllib aa_sky.mtl
o polygon0.001
v 673.133972 -843.955017 -512.842957
v 96.469902 -843.954773 2757.569824
v -2447.459961 -843.954895 622.960022
v -2543.629883 65.303650 657.963013
v -1949.199951 65.303391 -2713.239990
v -2447.459961 974.562073 622.959900
v -1870.799927 974.561829 -2647.459961
v 673.133972 974.561951 -512.843079
v 1249.799927 -843.955261 -3783.260010
v 3793.729980 -843.955078 -1648.649780
v 3889.899902 65.303467 -1683.649902
v 3295.459961 65.303726 1687.559937
v 3793.729980 974.561890 -1648.650024
v 3217.069824 974.562134 1621.769897
v 3217.069824 -843.954834 1621.770142
v 78.698494 65.303810 2858.359863
v 96.469902 974.562195 2757.569824
v -1870.799927 -843.955139 -2647.459961
v 1267.569946 65.303307 -3884.049805
v 1249.799927 974.561707 -3783.260010
vn 0.9338 0.1119 -0.3399
vn 0.1726 0.1119 -0.9786
vn -0.0000 1.0000 -0.0000
vn 0.9397 -0.0000 -0.3420
vn 0.7660 -0.0000 0.6428
vn 0.9338 -0.1119 -0.3398
vn 0.7612 -0.1119 0.6387
vn -0.0000 -1.0000 -0.0000
vn -0.9338 0.1119 0.3399
vn -0.1726 0.1119 0.9786
vn -0.9397 -0.0000 0.3420
vn -0.7660 -0.0000 -0.6428
vn -0.9338 -0.1119 0.3397
vn -0.7612 -0.1119 -0.6387
vn -0.7612 0.1119 -0.6388
vn 0.1736 -0.0000 -0.9848
vn 0.1723 -0.1119 -0.9787
vn 0.7612 0.1119 0.6387
vn -0.1736 -0.0000 0.9848
vn -0.1725 -0.1119 0.9786
vt 0.250000 0.989990
vt 0.500000 0.989990
vt 0.375000 0.989990
vt 0.250000 0.010010
vt 0.000000 0.010010
vt 0.000000 0.989990
vt 0.125000 0.989990
vt 1.000000 0.989990
vt 1.250000 0.989990
vt 1.125000 0.989990
vt 1.000000 0.010010
vt 0.750000 0.010010
vt 0.750000 0.989990
vt 0.875000 0.989990
vt 0.625000 0.989990
vt 0.500000 0.010010
vt -0.250000 0.010010
vt -0.250000 0.989990
vt -0.125000 0.989990
vt 1.250000 0.010010
s 1
usemtl aa_sky.001
f 3/1/1 2/2/2 1/3/3
f 4/4/4 2/2/2 3/1/1
f 5/5/5 4/4/4 3/1/1
f 6/1/6 4/4/4 5/5/5
f 7/6/7 6/1/6 5/5/5
f 8/7/8 6/1/6 7/6/7
f 10/8/9 9/9/10 1/10/3
f 11/11/11 9/9/10 10/8/9
f 12/12/12 11/11/11 10/8/9
f 13/8/13 11/11/11 12/12/12
f 14/13/14 13/8/13 12/12/12
f 8/14/8 13/8/13 14/13/14
f 2/2/2 15/13/15 1/15/3
f 16/16/16 15/13/15 2/2/2
f 4/4/4 16/16/16 2/2/2
f 17/2/17 16/16/16 4/4/4
f 6/1/6 17/2/17 4/4/4
f 8/3/8 17/2/17 6/1/6
f 18/6/18 3/1/1 1/7/3
f 5/5/5 3/1/1 18/6/18
f 19/17/19 5/5/5 18/6/18
f 7/6/7 5/5/5 19/17/19
f 20/18/20 7/6/7 19/17/19
f 8/19/8 7/6/7 20/18/20
f 15/13/15 10/8/9 1/14/3
f 12/12/12 10/8/9 15/13/15
f 16/16/16 12/12/12 15/13/15
f 14/13/14 12/12/12 16/16/16
f 17/2/17 14/13/14 16/16/16
f 8/15/8 14/13/14 17/2/17
f 20/9/20 13/8/13 8/10/8
f 11/11/11 13/8/13 20/9/20
f 19/20/19 11/11/11 20/9/20
f 9/9/10 11/11/11 19/20/19
f 9/18/10 18/6/18 1/19/3
f 19/17/19 18/6/18 9/18/10
