# Blender 3.6.2
# www.blender.org
o polygon366
v -57.134502 50.529507 57.432491
v -52.619999 50.529507 62.812992
v -57.134502 52.799004 57.432491
v -52.619999 52.799004 62.812992
v -57.211498 50.529507 57.496490
v -57.211498 52.799004 57.496490
v -52.696499 50.529507 62.876991
v -52.696499 52.799004 62.876991
v 152.475494 44.947330 -104.956505
v 146.429993 44.947330 -104.956505
v 152.475494 46.908630 -104.956505
v 146.429993 46.908630 -104.956505
v 152.475494 44.947330 -105.043503
v 152.475494 46.908630 -105.043503
v 146.429993 44.947330 -105.043503
v 146.429993 46.908630 -105.043503
vn 0.7661 -0.0000 -0.6428
vn -0.7660 -0.0000 0.6428
vn -0.0000 -0.0000 1.0000
vn -0.0000 -0.0000 -1.0000
vt 1.000000 1.000000
vt 0.000000 0.000000
vt 1.000000 0.000000
vt 0.000000 1.000000
s 0
f 3/1/1 2/2/1 1/3/1
f 4/4/1 2/2/1 3/1/1
f 7/3/2 6/4/2 5/2/2
f 8/1/2 6/4/2 7/3/2
f 11/1/3 10/2/3 9/3/3
f 12/4/3 10/2/3 11/1/3
f 15/3/4 14/4/4 13/2/4
f 16/1/4 14/4/4 15/3/4
