# Blender 3.6.2
# www.blender.org
o polygon471.001
v -93.428505 46.265472 142.022995
v -93.428505 46.265472 151.285995
v -95.134995 46.482418 139.452499
v -95.134995 46.482418 149.126495
v -96.579498 47.100269 137.074493
v -96.579498 47.100269 146.951508
v -97.543999 48.024975 135.247498
v -97.543999 48.024975 145.089493
v -97.883507 49.107521 134.251007
v -97.883507 49.107521 143.827499
v -93.428505 46.265465 102.802498
v -93.428505 46.265465 112.585495
v -95.134995 46.482410 104.336502
v -95.134995 46.482410 115.022003
v -96.579498 47.100262 105.921501
v -96.579498 47.100262 117.243500
v -97.543999 48.024967 107.317993
v -97.543999 48.024967 118.914497
v -97.883507 49.107513 108.309502
v -97.883507 49.107513 119.781006
v -95.589996 33.349976 -140.797989
v -93.590492 33.349976 -147.946503
v -95.589996 33.149975 -140.797989
v -93.590492 33.149975 -147.946503
v -95.589996 31.751478 -140.797989
v -93.590492 31.751375 -147.946503
v -95.249001 30.641127 -140.797989
v -93.249001 30.641026 -147.947006
v -94.276505 29.705727 -140.798996
v -92.276505 29.705626 -147.947998
v -92.819496 29.079926 -140.799500
v -90.819496 29.079876 -147.949005
v -89.098999 28.859877 -147.949493
v -95.276505 29.705730 -126.863503
v -95.276505 29.705730 -119.200493
v -96.248505 30.641230 -127.543999
v -96.248505 30.641230 -119.200493
v -96.589996 31.751482 -119.201004
v -92.098999 28.859880 -119.199997
v -93.819496 29.079929 -119.199997
v -92.098999 28.859880 -124.639000
v -93.819496 29.079929 -125.843506
v -91.098999 28.859877 -140.800003
v -96.589996 31.751482 -127.782997
v -93.924995 46.218773 138.636002
v -93.924995 46.218773 130.011993
v -77.752495 46.218773 138.636002
v -93.043503 46.218773 127.221001
v -74.000000 46.218773 127.206505
v -96.582001 47.107769 138.636002
v -95.134995 46.489918 133.844498
v -95.134995 46.489918 138.636002
v -93.428505 46.272972 138.636002
v -93.428505 46.272972 128.440002
vn 0.2170 0.9762 -0.0000
vn 0.1261 0.9920 -0.0000
vn 0.3068 0.9518 -0.0000
vn 0.5001 0.8659 -0.0000
vn 0.6011 0.7992 -0.0000
vn 0.8019 0.5975 -0.0000
vn 0.8916 0.4528 -0.0000
vn 0.9542 0.2992 -0.0000
vn 0.9542 0.2993 -0.0000
vn 0.3069 0.9517 -0.0000
vn 0.5001 0.8660 -0.0000
vn 0.6012 0.7991 -0.0000
vn 0.8018 0.5976 -0.0000
vn 0.8917 0.4527 -0.0000
vn 0.9630 -0.0000 0.2694
vn 0.9586 0.0955 0.2681
vn 0.9453 0.1910 0.2644
vn 0.8662 0.4370 0.2423
vn 0.7830 0.5822 0.2190
vn 0.5933 0.7877 0.1659
vn 0.4957 0.8573 0.1387
vn 0.2622 0.9622 0.0734
vn 0.2622 0.9622 0.0733
vn 0.1268 0.9913 0.0355
vn 0.8518 0.5239 -0.0000
vn 0.5530 0.8332 -0.0000
vn 0.8517 0.5240 -0.0000
vn 0.9558 0.2940 -0.0000
vn 0.1269 0.9919 -0.0000
vn 0.2180 0.9760 -0.0000
vn 0.3081 0.9513 -0.0000
vn -0.0000 1.0000 -0.0000
vn 0.2619 0.9651 -0.0000
vn 0.2168 0.9762 -0.0000
vn 0.3927 0.9197 -0.0000
vt 0.367859 0.422974
vt 0.570343 0.093567
vt 0.511169 0.415161
vt 0.429657 0.087158
vt 0.224518 0.423401
vt 0.287598 0.080505
vt 0.102814 0.416260
vt 0.165680 0.074585
vt 0.021515 0.402771
vt 0.082703 0.070312
vt 0.407806 0.399109
vt 0.487091 0.077698
vt 0.544555 0.382568
vt 0.345032 0.066162
vt 0.269470 0.414673
vt 0.202972 0.061890
vt 0.150482 0.426941
vt 0.082367 0.065613
vt 0.069214 0.434021
vt 0.001831 0.076599
vt 0.458069 0.357910
vt 0.402893 0.036743
vt 0.470215 0.354004
vt 0.390717 0.040649
vt 0.372955 0.385193
vt 0.305603 0.067932
vt 0.293335 0.407471
vt 0.225983 0.090210
vt 0.202118 0.427490
vt 0.134766 0.110169
vt 0.112671 0.442322
vt 0.045319 0.125000
vt -0.028748 0.132446
vt 0.426331 0.084839
vt 0.310089 0.443909
vt 0.331573 0.087097
vt 0.402954 0.473267
vt 0.456085 0.491333
vt 0.021912 0.094665
vt 0.170990 0.399902
vt 0.006683 0.347900
vt 0.189575 0.090576
vt 0.038605 0.449707
vt 0.480133 0.091736
vt -0.000336 1.000000
vt 0.506317 0.622864
vt 0.445526 1.000000
vt 0.502503 0.500000
vt -0.003815 0.500000
vt 0.471893 1.000000
vt 0.506531 0.789673
vt 0.503418 1.000000
vt 0.434723 1.000000
vt 0.509583 0.554443
s 1
f 3/1/1 2/2/2 1/3/2
f 4/4/3 2/2/2 3/1/1
f 5/5/4 4/4/3 3/1/1
f 6/6/5 4/4/3 5/5/4
f 7/7/6 6/6/5 5/5/4
f 8/8/7 6/6/5 7/7/6
f 9/9/8 8/8/7 7/7/6
f 10/10/9 8/8/7 9/9/8
f 13/11/1 12/12/2 11/13/2
f 14/14/10 12/12/2 13/11/1
f 15/15/11 14/14/10 13/11/1
f 16/16/12 14/14/10 15/15/11
f 17/17/13 16/16/12 15/15/11
f 18/18/14 16/16/12 17/17/13
f 19/19/8 18/18/14 17/17/13
f 20/20/9 18/18/14 19/19/8
s 0
f 23/21/15 22/22/15 21/23/15
f 24/24/15 22/22/15 23/21/15
s 1
f 25/25/16 24/24/15 23/21/15
f 26/26/17 24/24/15 25/25/16
f 27/27/18 26/26/17 25/25/16
f 28/28/19 26/26/17 27/27/18
f 29/29/20 28/28/19 27/27/18
f 30/30/21 28/28/19 29/29/20
f 31/31/22 30/30/21 29/29/20
f 32/32/23 30/30/21 31/31/22
f 33/33/24 32/32/23 31/31/22
f 36/34/25 35/35/26 34/36/26
f 37/37/27 35/35/26 36/34/25
f 38/38/28 37/37/27 36/34/25
f 41/39/29 40/40/30 39/41/29
f 42/42/31 40/40/30 41/39/29
f 42/42/31 35/35/26 40/40/30
f 34/36/26 35/35/26 42/42/31
f 43/43/24 33/33/24 31/31/22
f 36/34/25 44/44/28 38/38/28
s 0
f 47/45/32 46/46/32 45/47/32
f 48/48/32 46/46/32 47/45/32
f 49/49/32 48/48/32 47/45/32
s 1
f 52/50/33 51/51/34 50/52/35
f 53/53/2 51/51/34 52/50/33
f 53/53/2 54/54/2 51/51/34
