# Blender 3.6.2
# www.blender.org
o polygon378
v -31.584999 49.260006 30.559992
v -31.584999 51.775005 30.559992
v -29.439999 49.260006 31.794992
v -29.439999 51.775005 31.794992
v 22.484999 32.314976 -144.645004
v 22.684999 33.699978 -146.254990
v 22.254999 33.384975 -142.809998
v 22.459999 34.464977 -144.449997
v 38.709999 31.514980 -137.684998
v 38.139999 32.859978 -136.129990
v 39.334999 32.634975 -139.395004
v 38.754997 33.669975 -137.819992
v 55.074997 31.439980 -130.955002
v 55.419998 32.774975 -132.589996
v 54.704998 32.574978 -129.184998
v 55.049999 33.599976 -130.834991
v 80.379997 58.350021 145.879990
v 80.379997 59.385021 147.750000
v 80.379997 59.770023 144.285004
v 80.379997 60.500023 146.119995
vn -0.4990 -0.0000 0.8666
vn -0.9923 -0.0002 -0.1239
vn -0.9923 -0.0008 -0.1239
vn -0.9923 0.0003 -0.1238
vn 0.9391 0.0020 0.3436
vn 0.9391 0.0007 0.3437
vn 0.9392 0.0036 0.3435
vn 0.9391 0.0023 0.3436
vn -0.9787 -0.0001 -0.2055
vn -0.9787 0.0013 -0.2054
vn -0.9786 -0.0016 -0.2056
vn -0.9787 -0.0003 -0.2055
vn 1.0000 -0.0000 -0.0000
vt 2.000000 0.000000
vt 0.000000 2.000000
vt 0.000000 0.000000
vt 2.000000 2.000000
vt 1.500000 1.500000
s 0
f 3/1/1 2/2/1 1/3/1
f 4/4/1 2/2/1 3/1/1
f 7/1/2 6/2/2 5/3/3
f 8/5/4 6/2/2 7/1/2
f 11/1/5 10/2/5 9/3/6
f 12/5/7 10/2/8 11/1/8
f 15/1/9 14/2/9 13/3/10
f 16/5/11 14/2/12 15/1/12
f 19/1/13 18/2/13 17/3/13
f 20/5/13 18/2/13 19/1/13
